<?xml version="1.0" encoding="UTF-8"?>
<svg version="1.1" xmlns="http://www.w3.org/2000/svg" width="512" height="512">
<path d="M0 0 C1.03574899 -0.00445784 2.07149799 -0.00891569 3.13863331 -0.01350862 C4.27509027 -0.01332426 5.41154723 -0.01313989 6.58244228 -0.01294994 C7.79091381 -0.01662663 8.99938534 -0.02030332 10.24447721 -0.02409142 C13.60048418 -0.03321098 16.95644226 -0.03782636 20.31245697 -0.04048073 C23.93158881 -0.04438725 27.55070654 -0.05396541 31.16982937 -0.0626936 C39.91133568 -0.08244908 48.65284313 -0.09252345 57.39436617 -0.10142139 C61.51271732 -0.10580613 65.63106718 -0.11117249 69.7494173 -0.11641026 C83.44318945 -0.13342227 97.1369608 -0.14791562 110.83074188 -0.155159 C114.38375315 -0.15706884 117.93676441 -0.15898918 121.48977566 -0.16094494 C122.37284082 -0.16142868 123.25590599 -0.16191242 124.16573071 -0.16241082 C138.46527507 -0.17070805 152.76473569 -0.19603989 167.0642435 -0.22852562 C181.7511961 -0.26161899 196.43810619 -0.27960985 211.12509626 -0.28280324 C219.36885612 -0.28496632 227.61249391 -0.29368525 235.85621738 -0.31926441 C242.87823278 -0.34100264 249.90009645 -0.34900656 256.92214168 -0.33929763 C260.50229696 -0.3347618 264.08213938 -0.33659676 267.66225147 -0.35605907 C271.55130439 -0.37701739 275.43992962 -0.36667675 279.32902431 -0.35352612 C280.44986622 -0.36449536 281.57070813 -0.37546461 282.72551495 -0.38676625 C295.4217636 -0.28340305 304.56262046 4.04737923 313.6150198 12.79047108 C320.63487466 20.36405494 324.00633611 28.94159291 324.05839443 39.1450243 C324.06333241 39.850813 324.06827039 40.55660171 324.073358 41.28377795 C324.08871386 43.64831134 324.09708843 46.01281761 324.10549831 48.37738514 C324.11507834 50.0725373 324.1250885 51.76768708 324.13549709 53.46283436 C324.16253871 58.06574124 324.18355232 62.66865836 324.20349908 67.27160072 C324.22536319 72.08160044 324.25274981 76.8915686 324.27955532 81.70154285 C324.32947643 90.81037917 324.37441744 99.919233 324.41757768 109.02810359 C324.46695501 119.39803197 324.52187131 129.76792869 324.57725728 140.13782644 C324.69106841 161.46992849 324.79790936 182.80206077 324.90017605 204.13422108 C326.81902115 201.90319863 328.73683838 199.67130634 330.6540823 197.43890858 C331.46311001 196.49857777 331.46311001 196.49857777 332.28848171 195.53925037 C335.85118109 191.38887525 339.31968484 187.17884746 342.71267605 182.88812733 C345.56089976 179.30241712 348.44836797 175.74935907 351.33767605 172.19672108 C351.89769314 171.50803944 352.45771023 170.8193578 353.03469753 170.10980701 C357.64565306 164.44244035 362.25686045 158.77512401 366.90017605 153.13422108 C367.68263699 152.13777576 368.46509792 151.14133045 369.2712698 150.11468983 C379.51330073 138.50299652 395.08592225 132.01791095 410.2947073 130.88031483 C426.70155595 130.34773649 441.61812766 134.5766083 454.15017605 145.50922108 C455.75159663 147.03209096 457.33619872 148.57292179 458.90017605 150.13422108 C459.54986355 150.77230701 460.19955105 151.41039295 460.86892605 152.06781483 C465.91456439 157.39007807 469.04688485 163.41601726 471.90017605 170.13422108 C472.41451199 171.34271717 472.41451199 171.34271717 472.93923855 172.57562733 C477.5572168 186.01955466 476.46037129 203.19142547 470.90017605 216.13422108 C470.46125027 217.32531483 470.46125027 217.32531483 470.0134573 218.54047108 C466.38981397 227.13409162 459.62685176 233.98388263 453.66628933 241.02093983 C451.10618577 244.08428741 448.6556891 247.22728848 446.21267605 250.38422108 C442.27499967 255.44961579 438.19733244 260.36797635 434.02444363 265.24066639 C430.7116531 269.1272659 427.53348059 273.10194926 424.40017605 277.13422108 C420.32913174 282.37246756 416.12676625 287.47203069 411.81863308 292.5165453 C408.40934479 296.51343085 405.10614146 300.58139801 401.8415823 304.69672108 C399.07388801 308.17165314 396.2520922 311.60137393 393.4353323 315.03656483 C390.49668973 318.62328199 387.57330409 322.22235671 384.65017605 325.82172108 C384.09886013 326.50057362 383.54754421 327.17942616 382.97952175 327.87884998 C381.84950994 329.27041288 380.7195461 330.66201473 379.58962917 332.05365467 C376.32240163 336.07725483 373.05352844 340.09951805 369.78494167 344.12201405 C367.02591202 347.51755085 364.2673244 350.91344508 361.50955105 354.31000233 C356.11539458 360.95280613 350.7144045 367.58963488 345.29080105 374.20843983 C341.68402438 378.62261585 338.09314535 383.04970083 334.50369167 387.47797108 C333.97968777 388.12379139 333.45568386 388.7696117 332.91580105 389.43500233 C332.22405788 390.28832142 332.22405788 390.28832142 331.51834011 391.15887928 C329.90017605 393.13422108 329.90017605 393.13422108 327.33529568 395.76228809 C324.41486042 399.28852056 324.21766884 402.60440283 324.32009792 407.06049061 C324.31641956 408.2179504 324.31641956 408.2179504 324.31266689 409.39879322 C324.31050203 411.06678012 324.31971976 412.73481297 324.33915615 414.40268803 C324.36933951 417.0533434 324.3681647 419.70239087 324.35903835 422.3531847 C324.34279089 428.93947902 324.37996059 435.52527445 324.41561794 442.11145496 C324.44371676 447.67537862 324.45112703 453.23861494 324.43205166 458.80258274 C324.43144004 461.39522396 324.46047376 463.9863974 324.49087429 466.57883167 C324.53135675 480.52448965 321.26973958 491.64622033 311.24392605 501.81390858 C307.23097867 505.48028323 302.92051344 508.06978327 297.90017605 510.13422108 C297.06977621 510.47629125 296.23937637 510.81836142 295.3838129 511.17079735 C290.87508889 512.41771598 286.72798695 512.42065184 282.0721426 512.40837574 C281.08726317 512.41361242 280.10238374 512.4188491 279.08765948 512.42424446 C275.78993502 512.4392371 272.49236583 512.43994947 269.19460964 512.44061756 C266.82898605 512.44823964 264.46336494 512.45666722 262.09774685 512.46584034 C255.67187674 512.48778999 249.24605422 512.49658514 242.82015085 512.50166678 C238.80347199 512.50492863 234.78680266 512.51145413 230.7701292 512.51866817 C219.63691867 512.53823062 208.50371699 512.55463646 197.37048817 512.55754471 C196.30258949 512.55782606 196.30258949 512.55782606 195.2131171 512.5581131 C193.77000944 512.55847934 192.32690178 512.55884304 190.88379411 512.55920421 C190.16748629 512.55938702 189.45117846 512.55956984 188.71316433 512.55975819 C187.99597629 512.55993874 187.27878825 512.56011928 186.53986724 512.5603053 C174.92792405 512.56384432 163.31616662 512.59085111 151.70428781 512.62825608 C139.766579 512.66640104 127.8289622 512.68570264 115.89119112 512.68600422 C109.19501089 512.68658746 102.49908561 512.69551073 95.80295849 512.72400188 C89.50078877 512.75021666 83.19905671 512.75236813 76.89685726 512.73634624 C74.58947576 512.73453439 72.2820689 512.74119848 69.97474194 512.75716496 C49.90157604 512.88755053 38.16119681 509.30797549 23.655303 495.16400623 C21.22263072 492.76076412 18.80493538 490.34279434 16.3884573 487.92328358 C15.08929164 486.6280119 13.78990524 485.3329616 12.49030972 484.03812122 C9.7780653 481.33330657 7.06968637 478.62469166 4.3637991 475.91351795 C0.90919561 472.45311303 -2.55666011 469.00422761 -6.02573013 465.5583334 C-8.70853969 462.89030579 -11.38433697 460.21532971 -14.05820751 457.53834629 C-15.33280646 456.26425794 -16.60974607 454.99250645 -17.88913631 453.72322941 C-29.55313651 442.14019413 -37.33068199 432.95838403 -37.50048241 415.87311121 C-37.50592964 413.6506813 -37.49682811 411.42856448 -37.48750401 409.20615101 C-37.49168057 407.58517284 -37.49715986 405.9641976 -37.50382382 404.34322774 C-37.51825483 399.90392153 -37.51404104 395.46480134 -37.506657 391.02548504 C-37.50192183 386.23191436 -37.5144383 381.43838373 -37.52467442 376.64482594 C-37.54186097 367.25960263 -37.5427027 357.87444629 -37.53746151 348.48921134 C-37.53341826 340.85984097 -37.53486522 333.23049037 -37.54020977 325.60112095 C-37.54095819 324.51479934 -37.54170661 323.42847774 -37.54247772 322.30923729 C-37.54400921 320.10229314 -37.54554756 317.89534899 -37.54709268 315.68840484 C-37.56081725 294.99706211 -37.55538037 274.3057572 -37.54390747 253.61441533 C-37.53397551 234.6916249 -37.54691522 215.76893226 -37.57084166 196.84615691 C-37.5952337 177.40846539 -37.60484025 157.9708194 -37.59818894 138.53311288 C-37.59469691 127.62343367 -37.59692774 116.71382966 -37.61443996 105.80416203 C-37.62916323 96.51686096 -37.62979571 87.22968806 -37.61236905 77.9423895 C-37.6038577 73.20581069 -37.60171288 68.46946081 -37.61702061 63.73289394 C-37.63087355 59.39266908 -37.62609679 55.05286914 -37.60678137 50.71266882 C-37.60302291 49.14680487 -37.6059389 47.58090682 -37.61639302 46.01507325 C-37.70743978 31.32774204 -34.75725589 21.09793009 -24.44357395 10.41937733 C-17.6670085 4.13826831 -9.27650435 0.0185437 0 0 Z " fill="#55ABDF" transform="translate(37.09982395172119,-0.13422107696533203)"/>
<path d="M0 0 C1.03574899 -0.00445784 2.07149799 -0.00891569 3.13863331 -0.01350862 C4.27509027 -0.01332426 5.41154723 -0.01313989 6.58244228 -0.01294994 C7.79091381 -0.01662663 8.99938534 -0.02030332 10.24447721 -0.02409142 C13.60048418 -0.03321098 16.95644226 -0.03782636 20.31245697 -0.04048073 C23.93158881 -0.04438725 27.55070654 -0.05396541 31.16982937 -0.0626936 C39.91133568 -0.08244908 48.65284313 -0.09252345 57.39436617 -0.10142139 C61.51271732 -0.10580613 65.63106718 -0.11117249 69.7494173 -0.11641026 C83.44318945 -0.13342227 97.1369608 -0.14791562 110.83074188 -0.155159 C114.38375315 -0.15706884 117.93676441 -0.15898918 121.48977566 -0.16094494 C122.37284082 -0.16142868 123.25590599 -0.16191242 124.16573071 -0.16241082 C138.46527507 -0.17070805 152.76473569 -0.19603989 167.0642435 -0.22852562 C181.7511961 -0.26161899 196.43810619 -0.27960985 211.12509626 -0.28280324 C219.36885612 -0.28496632 227.61249391 -0.29368525 235.85621738 -0.31926441 C242.87823278 -0.34100264 249.90009645 -0.34900656 256.92214168 -0.33929763 C260.50229696 -0.3347618 264.08213938 -0.33659676 267.66225147 -0.35605907 C271.55130439 -0.37701739 275.43992962 -0.36667675 279.32902431 -0.35352612 C280.44986622 -0.36449536 281.57070813 -0.37546461 282.72551495 -0.38676625 C295.4217636 -0.28340305 304.56262046 4.04737923 313.6150198 12.79047108 C320.63487466 20.36405494 324.00633611 28.94159291 324.05839443 39.1450243 C324.06333241 39.850813 324.06827039 40.55660171 324.073358 41.28377795 C324.08871386 43.64831134 324.09708843 46.01281761 324.10549831 48.37738514 C324.11507834 50.0725373 324.1250885 51.76768708 324.13549709 53.46283436 C324.16253871 58.06574124 324.18355232 62.66865836 324.20349908 67.27160072 C324.22536319 72.08160044 324.25274981 76.8915686 324.27955532 81.70154285 C324.32947643 90.81037917 324.37441744 99.919233 324.41757768 109.02810359 C324.46695501 119.39803197 324.52187131 129.76792869 324.57725728 140.13782644 C324.69106841 161.46992849 324.79790936 182.80206077 324.90017605 204.13422108 C326.81902115 201.90319863 328.73683838 199.67130634 330.6540823 197.43890858 C331.46311001 196.49857777 331.46311001 196.49857777 332.28848171 195.53925037 C335.85118109 191.38887525 339.31968484 187.17884746 342.71267605 182.88812733 C345.56089976 179.30241712 348.44836797 175.74935907 351.33767605 172.19672108 C351.89769314 171.50803944 352.45771023 170.8193578 353.03469753 170.10980701 C357.64565306 164.44244035 362.25686045 158.77512401 366.90017605 153.13422108 C367.68263699 152.13777576 368.46509792 151.14133045 369.2712698 150.11468983 C379.51330073 138.50299652 395.08592225 132.01791095 410.2947073 130.88031483 C426.70155595 130.34773649 441.61812766 134.5766083 454.15017605 145.50922108 C455.75159663 147.03209096 457.33619872 148.57292179 458.90017605 150.13422108 C459.54986355 150.77230701 460.19955105 151.41039295 460.86892605 152.06781483 C465.91456439 157.39007807 469.04688485 163.41601726 471.90017605 170.13422108 C472.41451199 171.34271717 472.41451199 171.34271717 472.93923855 172.57562733 C477.5572168 186.01955466 476.46037129 203.19142547 470.90017605 216.13422108 C470.46125027 217.32531483 470.46125027 217.32531483 470.0134573 218.54047108 C466.38981397 227.13409162 459.62685176 233.98388263 453.66628933 241.02093983 C451.10618577 244.08428741 448.6556891 247.22728848 446.21267605 250.38422108 C442.27499967 255.44961579 438.19733244 260.36797635 434.02444363 265.24066639 C430.7116531 269.1272659 427.53348059 273.10194926 424.40017605 277.13422108 C420.32913174 282.37246756 416.12676625 287.47203069 411.81863308 292.5165453 C408.40934479 296.51343085 405.10614146 300.58139801 401.8415823 304.69672108 C399.07388801 308.17165314 396.2520922 311.60137393 393.4353323 315.03656483 C390.49668973 318.62328199 387.57330409 322.22235671 384.65017605 325.82172108 C384.09886013 326.50057362 383.54754421 327.17942616 382.97952175 327.87884998 C381.84950994 329.27041288 380.7195461 330.66201473 379.58962917 332.05365467 C376.32240163 336.07725483 373.05352844 340.09951805 369.78494167 344.12201405 C367.02591202 347.51755085 364.2673244 350.91344508 361.50955105 354.31000233 C356.11539458 360.95280613 350.7144045 367.58963488 345.29080105 374.20843983 C341.68402438 378.62261585 338.09314535 383.04970083 334.50369167 387.47797108 C333.97968777 388.12379139 333.45568386 388.7696117 332.91580105 389.43500233 C332.22405788 390.28832142 332.22405788 390.28832142 331.51834011 391.15887928 C329.90017605 393.13422108 329.90017605 393.13422108 327.33529568 395.76228809 C324.41486042 399.28852056 324.21766884 402.60440283 324.32009792 407.06049061 C324.31641956 408.2179504 324.31641956 408.2179504 324.31266689 409.39879322 C324.31050203 411.06678012 324.31971976 412.73481297 324.33915615 414.40268803 C324.36933951 417.0533434 324.3681647 419.70239087 324.35903835 422.3531847 C324.34279089 428.93947902 324.37996059 435.52527445 324.41561794 442.11145496 C324.44371676 447.67537862 324.45112703 453.23861494 324.43205166 458.80258274 C324.43144004 461.39522396 324.46047376 463.9863974 324.49087429 466.57883167 C324.53135675 480.52448965 321.26973958 491.64622033 311.24392605 501.81390858 C307.23097867 505.48028323 302.92051344 508.06978327 297.90017605 510.13422108 C297.06977621 510.47629125 296.23937637 510.81836142 295.3838129 511.17079735 C290.87508889 512.41771598 286.72798695 512.42065184 282.0721426 512.40837574 C281.08726317 512.41361242 280.10238374 512.4188491 279.08765948 512.42424446 C275.78993502 512.4392371 272.49236583 512.43994947 269.19460964 512.44061756 C266.82898605 512.44823964 264.46336494 512.45666722 262.09774685 512.46584034 C255.67187674 512.48778999 249.24605422 512.49658514 242.82015085 512.50166678 C238.80347199 512.50492863 234.78680266 512.51145413 230.7701292 512.51866817 C219.63691867 512.53823062 208.50371699 512.55463646 197.37048817 512.55754471 C196.30258949 512.55782606 196.30258949 512.55782606 195.2131171 512.5581131 C193.77000944 512.55847934 192.32690178 512.55884304 190.88379411 512.55920421 C190.16748629 512.55938702 189.45117846 512.55956984 188.71316433 512.55975819 C187.99597629 512.55993874 187.27878825 512.56011928 186.53986724 512.5603053 C174.92792405 512.56384432 163.31616662 512.59085111 151.70428781 512.62825608 C139.766579 512.66640104 127.8289622 512.68570264 115.89119112 512.68600422 C109.19501089 512.68658746 102.49908561 512.69551073 95.80295849 512.72400188 C89.50078877 512.75021666 83.19905671 512.75236813 76.89685726 512.73634624 C74.58947576 512.73453439 72.2820689 512.74119848 69.97474194 512.75716496 C49.90157604 512.88755053 38.16119681 509.30797549 23.655303 495.16400623 C21.22263072 492.76076412 18.80493538 490.34279434 16.3884573 487.92328358 C15.08929164 486.6280119 13.78990524 485.3329616 12.49030972 484.03812122 C9.7780653 481.33330657 7.06968637 478.62469166 4.3637991 475.91351795 C0.90919561 472.45311303 -2.55666011 469.00422761 -6.02573013 465.5583334 C-8.70853969 462.89030579 -11.38433697 460.21532971 -14.05820751 457.53834629 C-15.33280646 456.26425794 -16.60974607 454.99250645 -17.88913631 453.72322941 C-29.55313651 442.14019413 -37.33068199 432.95838403 -37.50048241 415.87311121 C-37.50592964 413.6506813 -37.49682811 411.42856448 -37.48750401 409.20615101 C-37.49168057 407.58517284 -37.49715986 405.9641976 -37.50382382 404.34322774 C-37.51825483 399.90392153 -37.51404104 395.46480134 -37.506657 391.02548504 C-37.50192183 386.23191436 -37.5144383 381.43838373 -37.52467442 376.64482594 C-37.54186097 367.25960263 -37.5427027 357.87444629 -37.53746151 348.48921134 C-37.53341826 340.85984097 -37.53486522 333.23049037 -37.54020977 325.60112095 C-37.54095819 324.51479934 -37.54170661 323.42847774 -37.54247772 322.30923729 C-37.54400921 320.10229314 -37.54554756 317.89534899 -37.54709268 315.68840484 C-37.56081725 294.99706211 -37.55538037 274.3057572 -37.54390747 253.61441533 C-37.53397551 234.6916249 -37.54691522 215.76893226 -37.57084166 196.84615691 C-37.5952337 177.40846539 -37.60484025 157.9708194 -37.59818894 138.53311288 C-37.59469691 127.62343367 -37.59692774 116.71382966 -37.61443996 105.80416203 C-37.62916323 96.51686096 -37.62979571 87.22968806 -37.61236905 77.9423895 C-37.6038577 73.20581069 -37.60171288 68.46946081 -37.61702061 63.73289394 C-37.63087355 59.39266908 -37.62609679 55.05286914 -37.60678137 50.71266882 C-37.60302291 49.14680487 -37.6059389 47.58090682 -37.61639302 46.01507325 C-37.70743978 31.32774204 -34.75725589 21.09793009 -24.44357395 10.41937733 C-17.6670085 4.13826831 -9.27650435 0.0185437 0 0 Z M-6.09982395 33.13422108 C-8.33208003 36.56099781 -8.34861436 39.44618367 -8.34591961 43.48292637 C-8.34990171 44.7971639 -8.3538838 46.11140144 -8.35798657 47.46546435 C-8.3522804 48.92754006 -8.34638921 50.38961504 -8.34033298 51.85168934 C-8.34120484 53.40194241 -8.34295545 54.9521952 -8.34551132 56.50244641 C-8.34999282 60.76903677 -8.34197016 65.0355271 -8.33195519 69.30210471 C-8.32333454 73.90057772 -8.32623987 78.49904488 -8.32775974 83.09752369 C-8.32880947 91.06690022 -8.32252368 99.03624406 -8.31128407 107.00561237 C-8.29504394 118.52803896 -8.28982258 130.0504497 -8.28730808 141.5728865 C-8.28292864 160.26635465 -8.26961278 178.95980536 -8.25070286 197.65326405 C-8.2323505 215.81439597 -8.21819084 233.97552316 -8.20968723 252.13666248 C-8.20916179 253.25573493 -8.20863634 254.37480738 -8.20809497 255.52779111 C-8.20548493 261.14173527 -8.20295751 266.75567945 -8.20047116 272.36962366 C-8.17973091 318.95783488 -8.1444986 365.54602708 -8.09982395 412.13422108 C-7.37399113 412.14008732 -6.6481583 412.14595356 -5.90033054 412.15199757 C0.95572448 412.21001452 7.81150319 412.28214268 14.66723728 412.36993599 C18.19147464 412.41457398 21.71559817 412.45384404 25.2400198 412.48065662 C29.29630316 412.51175456 33.35197145 412.5665407 37.40798855 412.62250233 C38.66757381 412.62889225 39.92715908 412.63528217 41.2249136 412.64186573 C42.99607037 412.67155697 42.99607037 412.67155697 44.80300808 412.70184803 C45.83781307 412.71295109 46.87261806 412.72405415 47.93878078 412.73549366 C52.71085267 413.37801373 55.95947878 415.11725105 59.21267605 418.63422108 C61.79566663 422.46087378 62.03814176 425.37792359 62.10549831 429.89081287 C62.12544353 431.07181065 62.14538876 432.25280842 62.16593838 433.469594 C62.18265087 434.74466312 62.19936337 436.01973225 62.2165823 437.33343983 C62.2373634 438.63876163 62.25814449 439.94408344 62.27955532 441.28896046 C62.33469878 444.75604461 62.384142 448.22318754 62.43240261 451.69037342 C62.48267415 455.22965177 62.53833068 458.76884497 62.59353542 462.3080492 C62.70102243 469.25003264 62.80248832 476.19209302 62.90017605 483.13422108 C91.4787045 483.22545545 120.05721467 483.29625147 148.63586022 483.33848239 C152.00920336 483.34348527 155.38254622 483.34866255 158.75588894 483.35394764 C159.42746571 483.35499688 160.09904248 483.35604612 160.79097006 483.35712716 C171.66756788 483.37453627 182.54408119 483.40607672 193.42062887 483.44283226 C204.57951399 483.48022764 215.73837017 483.50215451 226.89731866 483.51057506 C233.16577783 483.51579666 239.4340453 483.52809672 245.70244312 483.5571413 C251.59980461 483.58424588 257.496895 483.59267602 263.39431286 483.5866518 C265.5611172 483.58775425 267.72793041 483.5957374 269.89468098 483.61104298 C272.84913366 483.63089295 275.80255774 483.62617818 278.75703335 483.61523914 C279.61793251 483.62689051 280.47883167 483.63854187 281.36581868 483.65054631 C285.41118992 483.60995498 287.39968592 483.45369617 290.89047813 481.22543812 C294.32390506 477.65274152 295.15257145 475.09892916 295.12722683 470.18207264 C295.12707577 469.20135792 295.12692471 468.2206432 295.12676907 467.21020985 C295.1164465 466.1590398 295.10612392 465.10786976 295.09548855 464.02484608 C295.09265865 462.94289967 295.08982876 461.86095325 295.08691311 460.74622059 C295.07572214 457.29210804 295.05061925 453.8382552 295.02517605 450.38422108 C295.01514486 448.04177691 295.00601925 445.69932867 294.9978323 443.35687733 C294.97578634 437.61590337 294.94231939 431.87508078 294.90017605 426.13422108 C293.80366726 426.24491932 292.70715847 426.35561756 291.57742214 426.4696703 C281.88390923 427.44735324 272.18969221 428.41760854 262.49446011 429.3781023 C257.54916585 429.86857582 252.60511273 430.36924742 247.6618948 430.88031483 C245.76220678 431.06963506 243.86247292 431.25849632 241.96267605 431.44672108 C240.73653591 431.57893055 240.73653591 431.57893055 239.48562527 431.71381092 C233.1340068 432.32456939 226.57248711 432.72623618 220.96267605 429.38422108 C217.53617877 425.64622404 216.67476709 421.73832592 216.13821316 416.78754139 C216.0214674 415.74164845 215.90472164 414.6957555 215.78443813 413.61816883 C215.66665508 412.49424732 215.54887203 411.37032581 215.4275198 410.21234608 C215.2995451 409.03895679 215.1715704 407.86556751 215.03971767 406.65662098 C214.76996804 404.16889213 214.50373467 401.68077986 214.24075222 399.19232655 C213.84346441 395.43890729 213.43430871 391.68693259 213.02322292 387.93500233 C212.38361634 382.04314837 211.7780197 376.14879654 211.20407009 370.25018787 C211.0124663 368.28558524 210.81578054 366.32146532 210.61190701 364.35809803 C210.37264402 362.00880594 210.16336645 359.65926852 209.9665823 357.30609608 C209.8538699 356.06440662 209.74115749 354.82271717 209.62502956 353.54340076 C210.08951576 347.78822309 213.22265203 343.65944193 216.8962698 339.29437733 C217.44806911 338.63236317 217.99986843 337.97034901 218.56838894 337.28827381 C219.15225368 336.59806141 219.73611843 335.90784901 220.33767605 335.19672108 C221.5959998 333.68933521 222.8538004 332.18151249 224.11111355 330.67328358 C224.74501003 329.91563709 225.37890652 329.15799061 226.03201199 328.37738514 C228.87254722 324.96666405 231.66917272 321.52098639 234.46267605 318.07172108 C235.53167346 316.75400219 236.60068389 315.43629387 237.6697073 314.11859608 C238.19902859 313.46568592 238.72834988 312.81277576 239.2737112 312.14008045 C242.06390619 308.69903542 244.85698829 305.2603369 247.65017605 301.82172108 C248.19536892 301.15020008 248.74056179 300.47867908 249.30227566 299.78680897 C252.3641743 296.01727981 255.43945805 292.25930185 258.52517605 288.50922108 C261.83701897 284.47215708 265.06524911 280.37711964 268.27517605 276.25922108 C272.66987529 270.62315949 277.22299643 265.15541549 281.9040823 259.75531483 C282.3433294 259.21229977 282.7825765 258.66928471 283.23513412 258.10981464 C284.53689832 256.56525476 285.9234556 255.09207275 287.33867836 253.65075397 C296.11552578 243.89325844 296.30179649 235.55961657 296.08303738 222.82758045 C296.08513151 220.80423582 296.09159562 218.78089176 296.10206509 216.75757313 C296.11766087 211.29867449 296.07149224 205.84190583 296.01291013 200.38336468 C295.96131115 194.66028169 295.96447838 188.93721056 295.96089077 183.21393299 C295.94709122 173.61407728 295.89604695 164.01502125 295.8193655 154.41547108 C295.72110529 142.0930712 295.68319956 129.77126188 295.66469193 117.44851398 C295.64843709 106.84339519 295.60621484 96.23840386 295.55896068 85.63338375 C295.54470555 82.22755447 295.53370884 78.8217252 295.52301884 75.41588306 C295.50444916 70.07063244 295.46973391 64.72571406 295.4224329 59.38064289 C295.40727146 57.41867027 295.39713915 55.45665146 295.39237499 53.49462605 C295.38489514 50.81894746 295.3590034 48.14406925 295.32823086 45.46857166 C295.33014818 44.69046808 295.33206551 43.91236449 295.33404094 43.11068201 C295.25817054 38.61401912 294.78911942 35.63930613 291.90017605 32.13422108 C287.23830468 27.90555044 281.37319927 28.71408619 275.44364834 28.74654102 C273.68562095 28.73846272 273.68562095 28.73846272 271.89207786 28.73022121 C268.64259815 28.71838869 265.39344691 28.72001367 262.14396417 28.72738802 C258.63808613 28.73211543 255.13226326 28.71961365 251.62640285 28.70937061 C244.75960852 28.69216889 237.89290563 28.69134543 231.02609534 28.69658352 C225.44511578 28.70062387 219.86416327 28.69918327 214.28318501 28.69383526 C213.48906612 28.69308684 212.69494723 28.69233841 211.87676413 28.69156731 C210.26354718 28.69003585 208.65033024 28.6884975 207.0371133 28.68695235 C191.90650744 28.67322236 176.77595328 28.67866851 161.6453486 28.69013756 C147.80160204 28.70007067 133.95798913 28.68712883 120.11426318 28.66320337 C105.90076602 28.63882384 91.68733113 28.62920165 77.47381347 28.63585609 C69.49348943 28.63935084 61.51326819 28.6370994 53.53295994 28.61960506 C46.73954315 28.6048974 39.94630154 28.60422873 33.15288825 28.62167598 C29.68676936 28.6302003 26.2209636 28.63230106 22.75486088 28.61702442 C18.99750516 28.60388974 15.24100576 28.61529675 11.4836874 28.63301563 C10.38787289 28.62341063 9.29205837 28.61380562 8.16303736 28.60390955 C2.12870338 28.66262744 -1.58639788 28.96358522 -6.09982395 33.13422108 Z " fill="#1A5082" transform="translate(37.09982395172119,-0.13422107696533203)"/>
<path d="M0 0 C1.00461523 -0.00583219 2.00923046 -0.01166439 3.04428858 -0.01767331 C4.14592877 -0.01389399 5.24756897 -0.01011467 6.3825922 -0.00622082 C7.5544616 -0.01004636 8.726331 -0.01387191 9.93371159 -0.01781338 C13.1873194 -0.02635657 16.44078344 -0.02590595 19.69439518 -0.02163279 C23.20298624 -0.0191696 26.71155056 -0.02817464 30.22013187 -0.03567028 C37.094065 -0.04843056 43.96795909 -0.05020933 50.84190207 -0.04787002 C56.42815321 -0.04608822 62.01439248 -0.04783352 67.6006422 -0.05209446 C68.39518531 -0.05268965 69.18972841 -0.05328484 70.00834857 -0.05389806 C71.62237278 -0.05510979 73.23639699 -0.05632393 74.8504212 -0.05754044 C89.99242715 -0.06842105 105.13441083 -0.06625099 120.27641804 -0.06015559 C134.13381343 -0.05498567 147.99113854 -0.06624292 161.84852003 -0.08525381 C176.07214356 -0.1046178 190.29573382 -0.11289076 204.51937062 -0.10913056 C212.50692753 -0.10721636 220.49442461 -0.10972732 228.48197079 -0.1238451 C235.28163427 -0.13574154 242.0812011 -0.13718337 248.88086586 -0.12505493 C252.35085753 -0.11915403 255.82067225 -0.1181 259.29065228 -0.13005733 C263.0504686 -0.14045402 266.80980529 -0.13248065 270.56960392 -0.11974621 C271.66901339 -0.12712049 272.76842287 -0.13449478 273.90114778 -0.14209253 C283.373068 -0.07432223 283.373068 -0.07432223 287.03958988 3.25447559 C290.43738953 7.38226082 290.4869777 11.43010175 290.48783207 16.5686388 C290.50543551 17.81993109 290.50543551 17.81993109 290.52339458 19.09650201 C290.55876114 21.89049684 290.57270369 24.6841738 290.58646488 27.47835255 C290.60690341 29.48267209 290.62846661 31.48698044 290.65107059 33.49127674 C290.71930827 40.07501344 290.75540808 46.65876973 290.78958988 53.24275684 C290.80304948 55.51361842 290.81666092 57.7844791 290.8304224 60.05533886 C290.88579012 69.507967 290.93347064 78.96057376 290.95954227 88.41333199 C290.9968624 101.93408506 291.07862348 115.45281316 291.22467136 128.97284442 C291.32396043 138.49244664 291.37286706 148.01151423 291.38475132 157.53162259 C291.3930773 163.21037384 291.42265617 168.88707022 291.50577641 174.56526089 C291.5829054 179.91698775 291.59702297 185.26537169 291.56486988 190.61752224 C291.56366651 192.57018193 291.58429629 194.52301077 291.62963581 196.47514439 C291.91934249 209.69203154 289.49961393 217.19125421 280.31806278 226.88220978 C279.76367149 227.44639252 279.2092802 228.01057526 278.63808918 228.59185445 C276.26601336 231.05908319 274.17016979 233.70193929 272.03958988 236.37947559 C270.70625655 238.00447559 269.37292322 239.62947559 268.03958988 241.25447559 C267.50333988 241.91576466 266.96708988 242.57705372 266.41458988 243.25838184 C265.31170914 244.60878412 264.18013004 245.93572604 263.03958988 247.25447559 C262.70958988 247.25447559 262.37958988 247.25447559 262.03958988 247.25447559 C262.03812332 246.1828763 262.03665676 245.11127701 262.03514576 244.00720501 C261.99856446 217.94295825 261.93913282 191.87884013 261.85568714 165.81470013 C261.81586356 153.21031319 261.78348791 140.60598899 261.76859379 128.00154591 C261.75559451 117.01659018 261.72867388 106.0317723 261.68497682 95.04689419 C261.66232334 89.22948998 261.64668154 83.41225604 261.64770603 77.59480381 C261.64845034 72.12005218 261.63059162 66.6456775 261.59842205 61.17102337 C261.58989837 59.16108957 261.5881898 57.15111362 261.59378719 55.14116955 C261.60041139 52.39715462 261.58254445 49.65434454 261.55857182 46.91045094 C261.56633223 46.11471979 261.57409265 45.31898865 261.58208823 44.49914443 C261.50220164 39.33524845 260.58357102 36.25827358 257.03958988 32.25447559 C252.08936173 28.82464118 247.58106603 28.82614074 241.77860355 28.86679554 C240.85482757 28.86141 239.93105158 28.85602446 238.97928238 28.85047573 C235.88857169 28.83618555 232.79828865 28.84330255 229.70755863 28.85042286 C227.48983255 28.84471991 225.27210941 28.83775594 223.05439091 28.82962513 C217.03383192 28.81167172 211.0134185 28.8128661 204.99284077 28.81856751 C199.96776083 28.82165579 194.942709 28.81557102 189.91763306 28.80952877 C177.38701656 28.79467502 164.85647042 28.79830316 152.32585895 28.81039207 C141.44706435 28.82032685 130.56843977 28.80737882 119.6896714 28.78345788 C108.51361941 28.75906874 97.33762907 28.74985818 86.16154671 28.75611061 C79.8892635 28.75948462 73.61712082 28.75703536 67.34485722 28.73985958 C61.44819269 28.72441714 55.55185346 28.72831623 49.65520191 28.74716473 C47.49044069 28.75085787 45.32565551 28.74772112 43.16091633 28.73727894 C40.20709243 28.7241175 37.25435316 28.7355739 34.30057621 28.75327015 C33.01389939 28.73886264 33.01389939 28.73886264 31.7012291 28.72416407 C26.3357569 28.79035984 23.31435753 29.71917037 19.03958988 33.25447559 C14.93964502 37.84430657 15.56425672 43.41111304 15.52787113 49.24275684 C15.50991993 50.30109226 15.49196873 51.35942768 15.47347355 52.44983387 C15.41939497 55.82217421 15.38548198 59.19437319 15.35208988 62.56697559 C15.31891472 64.85670879 15.28442489 67.14642335 15.24857426 69.43611622 C15.16366991 75.04210925 15.09530955 80.64812062 15.03958988 86.25447559 C16.84762089 86.2230547 16.84762089 86.2230547 18.69217777 86.19099903 C23.18538266 86.1183273 27.67853608 86.07257732 32.17215824 86.03474903 C34.11300247 86.01469531 36.05378674 85.98744514 37.99442387 85.95271778 C40.7921822 85.90392384 43.58913833 85.88144433 46.38724613 85.86385059 C47.24794209 85.84320545 48.10863804 85.82256031 48.99541569 85.80128956 C54.8591738 85.79912994 58.2077635 86.89733334 63.03958988 90.25447559 C65.90574494 93.33613103 66.9291781 96.57973691 67.60208988 100.69197559 C66.87501909 105.29675728 65.34438224 108.91336684 62.03958988 112.25447559 C56.40747948 115.22571419 51.90931499 115.66379759 45.60599613 115.54744434 C44.72805897 115.5431995 43.8501218 115.53895466 42.94558048 115.53458118 C40.16409408 115.51789849 37.38335425 115.48026644 34.60208988 115.44197559 C32.70691812 115.42691527 30.8117349 115.41322923 28.91654301 115.40095997 C24.29037869 115.37059128 19.66581181 115.3118518 15.03958988 115.25447559 C15.03958988 123.50447559 15.03958988 131.75447559 15.03958988 140.25447559 C18.99958988 140.25447559 22.95958988 140.25447559 27.03958988 140.25447559 C30.89500651 141.85595635 33.14659537 143.30386853 35.97708988 146.31697559 C37.65834884 150.96516211 37.80418009 155.38110623 37.03958988 160.25447559 C34.81296561 164.8909854 31.8186343 166.34285783 27.03958988 168.25447559 C23.07958988 168.25447559 19.11958988 168.25447559 15.03958988 168.25447559 C15.03958988 239.20447559 15.03958988 310.15447559 15.03958988 383.25447559 C5.79958988 383.25447559 -3.44041012 383.25447559 -12.96041012 383.25447559 C-13.05161872 335.58384199 -13.12242723 287.9132199 -13.16467144 240.24251621 C-13.16967439 234.61727076 -13.17485167 228.99202548 -13.18013668 223.36678028 C-13.18118592 222.2468736 -13.18223516 221.12696693 -13.1833162 219.97312368 C-13.20073152 201.82884371 -13.23227542 183.68461432 -13.2690213 165.54036437 C-13.30639936 146.92903432 -13.32863933 128.3177308 -13.3367641 109.70636475 C-13.34225837 98.21790887 -13.3596248 86.72959595 -13.39207599 75.24118407 C-13.41318517 67.36804414 -13.41961832 59.49497834 -13.41441563 51.62181215 C-13.41184825 47.0762726 -13.41584247 42.53098324 -13.43723202 37.98548794 C-13.45666591 33.82528999 -13.45770086 29.66551102 -13.4440057 25.50529398 C-13.44231254 23.99913225 -13.44741369 22.4929446 -13.45994285 20.98683403 C-13.47597398 18.94104288 -13.4649615 16.89509317 -13.45260143 14.84927654 C-13.45412031 13.71239387 -13.4556392 12.57551121 -13.4572041 11.40417755 C-12.83610104 7.46634904 -11.47167936 5.3242832 -8.96041012 2.25447559 C-5.99993415 0.1804436 -3.56746777 0.00356405 0 0 Z " fill="#FEFEFE" transform="translate(41.96041011810303,28.745524406433105)"/>
<path d="M0 0 C1.44000945 1.16356785 2.87770557 2.33000756 4.3125 3.5 C4.88355469 3.92410156 5.45460937 4.34820312 6.04296875 4.78515625 C22.19864 17.333623 33.08396222 38.82849062 36.8359375 58.60546875 C37.42409349 63.41195667 37.70789572 68.16051372 37.8125 73 C37.84327637 73.84908936 37.87405273 74.69817871 37.90576172 75.57299805 C37.90659267 79.75642755 37.6743851 82.62023836 35.03125 85.96875 C30.44976237 90.23427296 27.56752599 90.75082083 21.30410767 90.76742554 C20.5984688 90.77195665 19.89282994 90.77648776 19.16580808 90.78115618 C16.80139011 90.79381619 14.43720202 90.79217881 12.07275391 90.79052734 C10.37748417 90.79651159 8.68221716 90.8033169 6.98695374 90.81088257 C2.38154816 90.82856012 -2.22378312 90.83323868 -6.82921934 90.83451414 C-10.67366529 90.83641302 -14.51809393 90.8437704 -18.36253321 90.85085833 C-27.43277846 90.86714648 -36.502984 90.87202689 -45.57324219 90.87060547 C-54.93001186 90.86940384 -64.28655095 90.89050901 -73.64326227 90.9220928 C-81.67650226 90.94824298 -89.70966689 90.9589733 -97.74294913 90.95769465 C-102.5408772 90.95718465 -107.33860037 90.96288854 -112.13648605 90.98405075 C-116.64931217 91.00341203 -121.16173747 91.00357214 -125.67457771 90.98901749 C-127.32977572 90.98692567 -128.98499868 90.99165248 -130.64015388 91.0037384 C-132.90228695 91.01918512 -135.16303692 91.00988821 -137.42514038 90.99447632 C-138.69017584 90.99556585 -139.9552113 90.99665539 -141.25858116 90.99777794 C-146.05798333 90.30104622 -148.97439307 88.02115203 -152.53515625 84.859375 C-154.4368538 80.96572986 -154.17401683 77.02320328 -154.125 72.75 C-154.11525146 71.80914551 -154.10550293 70.86829102 -154.09545898 69.89892578 C-153.57698407 49.19859504 -144.84281336 30.25517766 -131.6875 14.5 C-130.90375 13.448125 -130.12 12.39625 -129.3125 11.3125 C-95.40014517 -25.02216589 -39.44219842 -30.16168115 0 0 Z " fill="#194F82" transform="translate(238.6875,203.5)"/>
<path d="M0 0 C2.878418 1.3314565 5.19196251 2.83298322 7.6171875 4.87109375 C8.29942383 5.43981201 8.98166016 6.00853027 9.68457031 6.59448242 C10.40741211 7.20267822 11.13025391 7.81087402 11.875 8.4375 C17.27309844 12.93610769 22.69808899 17.37998284 28.25 21.6875 C33.59490777 25.83908662 38.79036244 30.14068215 43.91503906 34.5612793 C46.7757066 37.04343896 46.7757066 37.04343896 50 39 C48.68624618 42.80192395 47.12513458 45.26753639 44.375 48.1875 C40.85267765 52.03117913 37.56229767 55.9830313 34.328125 60.0703125 C31.43244274 63.71420796 28.49929648 67.32671231 25.5625 70.9375 C24.71425659 71.98079468 24.71425659 71.98079468 23.84887695 73.04516602 C20.02811615 77.74198965 16.19605414 82.42945215 12.359375 87.11328125 C7.78950586 92.70456154 3.2411831 98.313385 -1.31054688 103.91943359 C-4.57777442 107.94303375 -7.84664761 111.96529698 -11.11523438 115.98779297 C-13.87426403 119.38332977 -16.63285165 122.779224 -19.390625 126.17578125 C-24.79529309 132.83152992 -30.20760639 139.48063627 -35.640625 146.11328125 C-40.7758475 152.39627699 -45.88531876 158.70028106 -51 165 C-58.31756165 174.01299212 -65.63908329 183.02234448 -73 192 C-76.83344301 190.32925002 -79.94417834 187.8388665 -83.1875 185.25 C-83.79408447 184.76974365 -84.40066895 184.2894873 -85.02563477 183.79467773 C-90.59749847 179.36329937 -96.0883202 174.8342086 -101.57275391 170.29541016 C-108.64761288 164.44520136 -115.81320149 158.71177873 -123 153 C-121.52748034 148.32104699 -118.77850807 145.14622502 -115.5625 141.5625 C-111.37309729 136.79185004 -107.32220327 131.95958466 -103.4375 126.9375 C-99.38976094 121.71731741 -95.20786287 116.64017536 -90.91821289 111.61743164 C-87.50905175 107.62058964 -84.2058941 103.55273317 -80.94140625 99.4375 C-78.17371197 95.96256794 -75.35191616 92.53284715 -72.53515625 89.09765625 C-69.59651361 85.51093901 -66.67314394 81.91185155 -63.75 78.3125 C-63.20158447 77.63727295 -62.65316895 76.9620459 -62.08813477 76.26635742 C-60.3919409 74.17769251 -58.69593658 72.08887383 -57 70 C-50.46575769 61.95181711 -43.92857452 53.90641671 -37.359375 45.88671875 C-32.2241525 39.60372301 -27.11468124 33.29971894 -22 27 C-14.68243835 17.98700788 -7.36091671 8.97765552 0 0 Z " fill="#FEC00D" transform="translate(409,193)"/>
<path d="M0 0 C1.37261748 1.01723059 2.72764635 2.05869679 4.0625 3.125 C4.74699219 3.63675781 5.43148437 4.14851563 6.13671875 4.67578125 C15.01456608 11.76114893 21.64732768 22.99670601 24.0625 34.125 C25.11459215 46.49307574 25.11449888 58.05014927 19.0625 69.125 C18.55460937 70.08535156 18.04671875 71.04570312 17.5234375 72.03515625 C9.98149559 85.02802774 -1.44925352 92.8537433 -15.75 97 C-29.64919609 100.03024249 -42.78524587 98.36918338 -55.1875 91.375 C-69.03899165 82.37265291 -77.33768329 70.29436304 -80.9375 54.125 C-82.02277001 42.39996257 -81.5639309 31.678128 -75.9375 21.125 C-75.42960938 20.16207031 -74.92171875 19.19914062 -74.3984375 18.20703125 C-66.98969815 5.47874683 -55.20229192 -3.16260479 -41.01171875 -7.0390625 C-26.85935139 -10.29179696 -12.24469324 -7.78636904 0 0 Z " fill="#1A5083" transform="translate(208.9375,75.875)"/>
<path d="M0 0 C0.10158627 6.86836079 0.17154375 13.73652717 0.21972656 20.60546875 C0.23981709 22.94115438 0.26709461 25.27678987 0.30175781 27.61230469 C0.35038691 30.97343331 0.37299492 34.33389575 0.390625 37.6953125 C0.41127014 38.73615997 0.43191528 39.77700745 0.45318604 40.84939575 C0.45504829 46.89348088 0.08765624 50.42976042 -4 55 C-7.94949553 57.63299702 -11.320278 57.27130929 -15.90263367 57.24050903 C-17.2846775 57.24307231 -17.2846775 57.24307231 -18.69464141 57.24568737 C-21.79479671 57.24899251 -24.89473755 57.23796167 -27.99487305 57.22705078 C-30.21203608 57.22648689 -32.42919949 57.2268028 -34.6463623 57.22793579 C-40.67701657 57.22851116 -46.70759177 57.21672704 -52.73822761 57.20278788 C-59.03632189 57.1903112 -65.33441785 57.18911244 -71.63252258 57.18673706 C-82.20725858 57.18122102 -92.78196857 57.16871655 -103.35668945 57.15087891 C-114.2492661 57.13252419 -125.14183484 57.11836569 -136.03442383 57.10986328 C-136.70570966 57.10933783 -137.3769955 57.10881239 -138.06862333 57.10827102 C-141.43622741 57.10566097 -144.80383154 57.10313354 -148.17143571 57.10064721 C-176.11431143 57.07972485 -204.05715213 57.04413 -232 57 C-232 47.76 -232 38.52 -232 29 C-229.59540497 28.99413376 -227.19080994 28.98826752 -224.71334839 28.98222351 C-202.08171582 28.9255951 -179.45017908 28.8525352 -156.81864738 28.76428509 C-145.1828184 28.71930823 -133.54702015 28.67989789 -121.91113281 28.65356445 C-111.76999428 28.63059972 -101.62895285 28.59721871 -91.48789132 28.55129844 C-86.117644 28.52734573 -80.74749298 28.50863034 -75.37719345 28.50238609 C-70.32272464 28.49634456 -65.26850231 28.47637824 -60.21412468 28.44572449 C-58.35899631 28.43692935 -56.50383574 28.43322473 -54.64868736 28.43499184 C-52.11502415 28.43664328 -49.58211346 28.41995665 -47.04855347 28.39872742 C-46.31507749 28.40357499 -45.58160152 28.40842257 -44.825899 28.41341704 C-40.15633372 28.34888145 -36.9653536 27.46339632 -33 25 C-28.93861894 20.35258073 -28.36752697 16.53340114 -28.25 10.625 C-28.22035156 9.88894531 -28.19070313 9.15289062 -28.16015625 8.39453125 C-28.09011967 6.5969257 -28.04271881 4.7984621 -28 3 C-23.89618207 2.49710955 -19.79189194 1.99818207 -15.6875 1.5 C-14.52025391 1.35691406 -13.35300781 1.21382813 -12.15039062 1.06640625 C-10.47299805 0.86337891 -10.47299805 0.86337891 -8.76171875 0.65625 C-7.2142395 0.46772461 -7.2142395 0.46772461 -5.63549805 0.27539062 C-3 0 -3 0 0 0 Z " fill="#FEFEFE" transform="translate(332,426)"/>
<path d="M0 0 C13.18303957 10.436573 23.25598872 23.60442103 25.6875 40.625 C-17.5425 40.625 -60.7725 40.625 -105.3125 40.625 C-104.18551587 32.73611111 -104.18551587 32.73611111 -102.7109375 29.7578125 C-102.22874756 28.77760132 -102.22874756 28.77760132 -101.73681641 27.77758789 C-101.21740479 26.77393188 -101.21740479 26.77393188 -100.6875 25.75 C-100.3270459 25.04673584 -99.9665918 24.34347168 -99.59521484 23.61889648 C-90.57274526 6.44051099 -76.65850817 -4.11529505 -58.51171875 -10.39453125 C-39.15474086 -16.32688955 -16.1679488 -11.80963217 0 0 Z " fill="#FDC00E" transform="translate(220.3125,225.375)"/>
<path d="M0 0 C1.17142044 -0.00540298 2.34284088 -0.01080597 3.54975891 -0.01637268 C7.41689418 -0.02886654 11.28328596 -0.01236332 15.15039062 0.00561523 C17.84029533 0.00737007 20.53018953 0.00402536 23.22009277 0.00120544 C28.85563819 -0.00149333 34.49097021 0.01195005 40.12646484 0.03515625 C46.63287608 0.06176408 53.13893064 0.06351194 59.64537764 0.05176789 C65.91595979 0.04097168 72.1864135 0.04719156 78.45698547 0.06132317 C81.12037779 0.06706715 83.78352062 0.06617361 86.44694519 0.06225777 C90.1692758 0.05934692 93.8910242 0.07584787 97.61328125 0.09765625 C98.71372269 0.0931546 99.81416412 0.08865295 100.94795227 0.08401489 C106.46447199 0.13770425 110.5869025 0.30482218 115.30664062 3.50170898 C119.17810619 7.79171137 120.6866182 10.47119474 120.58007812 16.34155273 C120.12177079 19.96218066 118.82016574 22.85589308 116.30664062 25.50170898 C110.15536781 29.94095037 105.07332248 30.07999219 97.62329102 30.03515625 C96.4646907 30.04377182 95.30609039 30.05238739 94.11238098 30.06126404 C90.29279061 30.08391657 86.47393435 30.07718574 82.65429688 30.06811523 C80.66600656 30.07202712 78.67771587 30.07595028 76.68942922 30.08141464 C70.44236482 30.09838414 64.19554485 30.09487805 57.94848633 30.078125 C51.51977097 30.0612069 45.09173482 30.07703973 38.66309363 30.10934788 C33.12821519 30.13610273 27.59354742 30.143304 22.05861086 30.1348328 C18.75957512 30.12992049 15.46103597 30.13414724 12.16203499 30.15262032 C8.48065072 30.17007434 4.80071139 30.15551337 1.11938477 30.1328125 C-0.50410889 30.1503508 -0.50410889 30.1503508 -2.16040039 30.16824341 C-8.93361754 30.08343265 -13.45918447 28.91918787 -18.69335938 24.50170898 C-21.91806485 20.87391533 -22.22061534 17.41347384 -22.04101562 12.71264648 C-21.30640956 8.04088209 -18.70402595 5.39490885 -15.27575684 2.36509705 C-10.62270773 -0.61812558 -5.34295342 -0.04694071 0 0 Z " fill="#1A5083" transform="translate(95.693359375,338.498291015625)"/>
<path d="M0 0 C0.67398834 -0.00540298 1.34797668 -0.01080597 2.04238892 -0.01637268 C4.25397664 -0.02880493 6.46424829 -0.01240776 8.67578125 0.00561523 C10.22225004 0.00546012 11.76871922 0.00396901 13.31518555 0.00120544 C16.54981764 -0.00017607 19.78400499 0.01233743 23.01855469 0.03515625 C27.15451971 0.06354052 31.28974632 0.06080043 35.42576599 0.04806614 C38.61721041 0.04109481 41.80848564 0.04891475 44.99990845 0.06132317 C46.52445831 0.06582357 48.04902643 0.06618685 49.57357788 0.06225777 C51.70828169 0.05933111 53.84198544 0.07591976 55.9765625 0.09765625 C57.79474487 0.10576073 57.79474487 0.10576073 59.6496582 0.11402893 C64.67779995 0.69789546 67.91916163 2.31700887 71.30078125 6.06420898 C74.12335244 10.14125626 74.39226097 12.49236052 73.98828125 17.50170898 C72.6035797 21.82197781 71.31700499 24.70472025 67.34568787 27.08677673 C63.57509939 28.67583872 60.88909587 28.90001162 56.80883789 28.9375 C55.7710041 28.95261375 55.7710041 28.95261375 54.71220398 28.96803284 C52.44078107 28.99636856 50.17002579 29.00238144 47.8984375 29.00561523 C46.30952183 29.01526493 44.72060879 29.02535805 43.13169861 29.03587341 C39.80721865 29.05379767 36.48297211 29.05939814 33.15844727 29.05761719 C28.9100887 29.0573122 24.66323308 29.09829688 20.41523075 29.14993382 C17.13538307 29.18337751 13.85589601 29.18937241 10.57589531 29.18778801 C9.01024625 29.19131474 7.44458653 29.20450941 5.87910652 29.22778511 C-7.86555349 29.41305096 -7.86555349 29.41305096 -12.43579102 25.61083984 C-15.79670897 22.00314181 -16.85289136 18.95762673 -17.38671875 14.06420898 C-16.92987801 9.72422199 -15.81570797 7.82222253 -13.01171875 4.50170898 C-8.55894117 0.97849034 -5.6521114 0.00077484 0 0 Z " fill="#194F82" transform="translate(142.01171875,406.498291015625)"/>
<path d="M0 0 C6.62168931 4.88485277 9.96127642 11.25762245 11.4140625 19.2890625 C11.84192159 25.661911 9.55865724 30.80350292 6 36 C1.14069277 41.40809963 -3.40963677 44.59037835 -10.7578125 45.24609375 C-17.39278295 45.52047223 -22.63866877 45.12498976 -28 41 C-33.78103127 35.62690441 -37.98275545 29.78763736 -38.4375 21.6875 C-38.14643044 14.56842379 -35.57194017 8.30373932 -30.75 3.0625 C-22.47571421 -4.370333 -9.68748033 -5.74681037 0 0 Z " fill="#FDFDFE" transform="translate(194,100)"/>
<path d="M0 0 C6.5465267 4.56763365 13.11166814 11.7427295 14.8046875 19.74609375 C15.60080784 28.35598784 15.76713871 37.27752169 10.8046875 44.74609375 C9.8146875 45.07609375 8.8246875 45.40609375 7.8046875 45.74609375 C5.53641251 44.24206235 3.5169079 42.72455539 1.4296875 40.99609375 C0.8119043 40.49746826 0.19412109 39.99884277 -0.44238281 39.48510742 C-5.75474213 35.17473539 -10.96868184 30.74570038 -16.171875 26.3046875 C-19.62752718 23.38033068 -23.14817802 20.55031878 -26.6953125 17.73828125 C-31.2338095 14.12166645 -35.71075645 10.42922724 -40.1953125 6.74609375 C-37.52752025 3.06552852 -35.30967284 0.92783611 -31.1953125 -1.00390625 C-29.926875 -1.61492187 -29.926875 -1.61492187 -28.6328125 -2.23828125 C-19.33073163 -6.11414828 -8.69482265 -4.96625991 0 0 Z " fill="#FCBF0E" transform="translate(468.1953125,164.25390625)"/>
<path d="M0 0 C5.59333603 4.05791045 10.8709972 8.39040086 16.12060547 12.87548828 C20.64022238 16.72582624 25.2658237 20.41572699 30 24 C22.07881676 28.41861923 11.78034932 27.12386073 3 27 C1.73480542 18.00852005 0.64121274 9.06134845 0 0 Z " fill="#F9BE0F" transform="translate(277,375)"/>
<path d="M0 0 C7.26 0 14.52 0 22 0 C22 7.26 22 14.52 22 22 C14.11135642 15.23830551 14.11135642 15.23830551 11.03515625 12.16796875 C10.38095703 11.51505859 9.72675781 10.86214844 9.05273438 10.18945312 C8.39595703 9.52880859 7.73917969 8.86816406 7.0625 8.1875 C6.37865234 7.50751953 5.69480469 6.82753906 4.99023438 6.12695312 C4.34505859 5.48048828 3.69988281 4.83402344 3.03515625 4.16796875 C2.4512915 3.58297607 1.86742676 2.9979834 1.26586914 2.39526367 C0 1 0 1 0 0 Z " fill="#F9FAFC" transform="translate(49,441)"/>
</svg>
